<svg width="20" height="20" viewBox="0 0 20 20" fill="none" xmlns="http://www.w3.org/2000/svg">
<path d="M10.7128 0V2.68667L13.5852 1.14L14.2979 2.29333L10.7128 4.22667V8.84667L14.9893 6.53333V2.66667H16.4148V5.76667L18.9024 4.42L19.6151 5.58L17.1276 6.92L20 8.47333L19.2872 9.62667L15.7021 7.69333L11.4255 10L15.7021 12.3067L19.2872 10.3733L20 11.5267L17.1276 13.08L19.6151 14.42L18.9024 15.58L16.4148 14.2333V17.3333H14.9893V13.4667L10.7128 11.1533V15.7733L14.2979 17.7067L13.5852 18.86L10.7128 17.3133V20H9.28724V17.3133L6.41483 18.86L5.70207 17.7067L9.28724 15.7733V11.1533L5.01069 13.4667V17.3333H3.58517V14.2333L1.09765 15.58L0.384889 14.42L2.87242 13.08L0 11.5267L0.712758 10.3733L4.29793 12.3067L8.57448 10L4.29793 7.69333L0.712758 9.62667L0 8.47333L2.87242 6.92L0.384889 5.58L1.09765 4.42L3.58517 5.76667V2.66667H5.01069V6.53333L9.28724 8.84667V4.22667L5.70207 2.29333L6.41483 1.14L9.28724 2.68667V0H10.7128Z" fill="#717375"/>
</svg>
