<svg width="25" height="24" viewBox="0 0 25 24" fill="none" xmlns="http://www.w3.org/2000/svg">
<path d="M10.5474 2.37891C8.11275 3.19338 6.06003 5.0085 5.05754 7.21921C4.12665 9.24376 3.88796 9.01106 8.20823 10.1281C10.3564 10.6865 12.2182 11.1985 12.3614 11.2683C12.5524 11.3614 12.2182 12.9671 11.2396 16.4111C10.4758 19.1571 9.85518 21.554 9.85518 21.6936C9.83131 21.8565 10.0939 21.9961 10.4042 21.9961C11.0248 21.9961 10.8815 22.3917 12.8388 15.2011C13.5071 12.6878 13.8651 11.757 14.1277 11.757C14.3187 11.757 16.2043 12.2224 18.3048 12.7809L22.1238 13.7816L22.3147 13.1765C22.625 12.1759 22.5295 9.38339 22.1476 8.17331C21.3361 5.6368 19.0447 3.33301 16.3952 2.42545C14.796 1.89022 12.075 1.84368 10.5474 2.37891ZM14.8438 3.28646C14.8438 3.61225 13.1013 9.80226 12.9581 9.94189C12.8865 10.035 12.1466 9.94189 11.3112 9.73245C10.2371 9.47647 9.83131 9.26704 9.83131 8.98779C9.83131 8.24312 11.4783 5.2412 12.4808 4.19402C13.2207 3.42609 13.6503 3.14684 14.1516 3.14684C14.5335 3.14684 14.8438 3.21665 14.8438 3.28646ZM11.2634 3.47263C11.2634 3.54244 10.8338 4.24056 10.3326 5.05504C9.80744 5.86951 9.21072 7.07959 8.94816 7.75444C8.54239 8.94125 8.49465 8.96452 7.80246 8.82489C6.63288 8.56891 6.01229 8.28967 6.01229 8.01042C6.01229 7.63809 7.32508 5.66008 7.87406 5.17139C8.35144 4.75252 10.7861 3.37955 11.0964 3.37955C11.1918 3.37955 11.2634 3.42609 11.2634 3.47263ZM16.9681 4.0544C17.4693 4.54308 17.9467 6.42801 17.9229 7.87079C17.9229 8.98779 17.6126 11.0123 17.4216 11.1752C17.3261 11.2683 14.5335 10.6633 14.1993 10.4771C14.1516 10.4538 14.4141 9.4532 14.7483 8.24312C16.1566 3.07703 16.1088 3.21665 16.9681 4.0544ZM19.9278 6.40474C20.2859 6.89342 20.7394 7.75444 20.9303 8.28967C21.3361 9.38339 21.4077 12.2224 21.0497 12.2224C20.9303 12.2224 20.3336 12.1061 19.7369 11.9432L18.6389 11.6639L18.8299 10.5935C18.9253 10.0117 19.0208 8.63873 19.0208 7.49846C18.997 6.38147 19.0447 5.47391 19.1402 5.47391C19.2118 5.47391 19.5459 5.89278 19.9278 6.40474Z" fill="#717375"/>
<path d="M4.8102 16.0489C4.46892 16.1271 3.86512 16.4918 3.44508 16.9087C2.18497 18.1853 2.18497 19.8005 3.44508 21.051C4.70519 22.3276 6.33284 22.3016 7.6192 21.025C9.71939 18.9408 7.77671 15.5279 4.8102 16.0489ZM6.59536 17.6903C7.14666 18.0029 7.27792 19.2274 6.83163 20.061C6.5166 20.6081 5.28275 20.7384 4.44267 20.2955C3.89137 19.9829 3.76011 18.7584 4.2064 17.9247C4.52143 17.3776 5.75529 17.2474 6.59536 17.6903Z" fill="#717375"/>
</svg>
