<svg width="32" height="32" viewBox="0 0 32 32" fill="none" xmlns="http://www.w3.org/2000/svg">
<path d="M25.9998 5.33338C26.421 5.33221 26.8271 5.48811 27.1363 5.76972C27.4455 6.05134 27.6349 6.43778 27.6665 6.85133V13.4072L29.2082 17.9529C29.2488 18.0761 29.2794 18.2023 29.2998 18.3303L29.3248 18.5272L29.3332 18.7241V26.6667H27.6665V25.0257H4.33317V26.6667H2.6665V18.7241C2.66781 18.5277 2.69298 18.3321 2.7415 18.1416L2.7915 17.9529L4.33317 13.4072V6.97441C4.33265 6.58146 4.47534 6.20138 4.73531 5.90325C4.99528 5.60512 5.35527 5.40873 5.74984 5.34979L5.87484 5.34159L5.99984 5.33338H25.9998ZM27.6665 20.1026H4.33317V23.3847H27.6665V20.1026ZM26.5082 15.1795H5.49984L4.38317 18.4616H27.6332L26.5082 15.1795ZM25.9998 6.97441H5.99984V13.5385H7.6665V10.2565C7.66532 9.84174 7.82365 9.44196 8.10966 9.13751C8.39568 8.83306 8.78816 8.64653 9.20817 8.61543H22.6665C23.0877 8.61426 23.4937 8.77016 23.8029 9.05177C24.1121 9.33339 24.3016 9.71983 24.3332 10.1334V13.5385H25.9998V6.97441ZM15.1665 10.2565H9.33317V13.5385H15.1665V10.2565ZM22.6665 10.2565H16.8332V13.5385H22.6665V10.2565Z" fill="#0A0A0A"/>
</svg>
