<svg width="24" height="24" viewBox="0 0 24 24" fill="none" xmlns="http://www.w3.org/2000/svg">
<path d="M8.97837 2V3.10122H15.0216V2H16.4173V3.10122H20.6043C20.957 3.10028 21.297 3.22557 21.556 3.45189C21.8149 3.67821 21.9735 3.98878 22 4.32113V14.9179C22.0006 15.226 21.8871 15.5247 21.679 15.762L21.5953 15.8477L15.4892 21.6175C15.2573 21.8372 14.9509 21.9727 14.6239 22H5.48919C4.58979 22.0008 3.7248 21.6734 3.07469 21.0862C2.42459 20.4989 2.03958 19.6971 2.00001 18.848V4.42005C1.99901 4.08675 2.1316 3.76546 2.37111 3.52079C2.61062 3.27612 2.93928 3.12622 3.291 3.10122H7.5827V2H8.97837ZM20.6043 9.69535H3.39568V18.7029C3.39472 19.2077 3.59796 19.6937 3.9638 20.0614C4.32963 20.4292 4.8304 20.6509 5.36358 20.6812H13.1654V16.9489C13.1645 16.099 13.511 15.2817 14.1325 14.6673C14.754 14.053 15.6025 13.6892 16.501 13.6518H20.6043V9.69535ZM20.5485 14.9707H16.6546C16.1204 14.9697 15.6061 15.1618 15.2169 15.5075C14.8277 15.8532 14.5931 16.3264 14.5611 16.8302V20.6284L20.5485 14.9707ZM7.5827 4.42005H3.39568V8.37652H20.6043V4.42005H16.4173V5.51467H15.0216V4.42005H8.97837V5.51467H7.5827V4.42005Z" fill="#0A0A0A"/>
</svg>
