<svg width="24" height="24" viewBox="0 0 24 24" fill="none" xmlns="http://www.w3.org/2000/svg">
<path d="M17.6242 2.00001C17.9654 1.99901 18.2944 2.1316 18.5449 2.37111C18.7954 2.61062 18.9489 2.93928 18.9745 3.291V20.6043H21V22H3V20.6043H5.02551V3.39568C5.02455 3.04297 5.15283 2.70296 5.38456 2.44403C5.61629 2.1851 5.93427 2.02646 6.27457 2.00001H6.37584H17.6242ZM14.9235 3.39568H6.37584V20.6043H14.9235V3.39568ZM17.6242 3.39568H16.2738V20.6043H17.6242V3.39568ZM12.898 11.0719C13.0159 11.0719 13.1327 11.0959 13.2416 11.1425C13.3506 11.1892 13.4496 11.2575 13.5329 11.3437C13.6163 11.4299 13.6825 11.5322 13.7276 11.6448C13.7727 11.7574 13.7959 11.8781 13.7959 12C13.7959 12.1219 13.7727 12.2426 13.7276 12.3552C13.6825 12.4678 13.6163 12.5701 13.5329 12.6563C13.4496 12.7425 13.3506 12.8108 13.2416 12.8575C13.1327 12.9041 13.0159 12.9281 12.898 12.9281C12.6598 12.9281 12.4314 12.8303 12.263 12.6563C12.0946 12.4822 12 12.2462 12 12C12 11.7538 12.0946 11.5178 12.263 11.3437C12.4314 11.1697 12.6598 11.0719 12.898 11.0719Z" fill="#0A0A0A"/>
</svg>
