<svg width="18" height="18" viewBox="0 0 18 18" fill="none" xmlns="http://www.w3.org/2000/svg">
<path d="M16.5 11.9167H8.42308M8.42308 11.9167C8.42308 12.5355 8.17995 13.129 7.74717 13.5666C7.31439 14.0042 6.72742 14.25 6.11538 14.25C5.50335 14.25 4.91638 14.0042 4.4836 13.5666C4.05082 13.129 3.80769 12.5355 3.80769 11.9167C3.80769 11.2978 4.05082 10.7043 4.4836 10.2668C4.91638 9.82917 5.50335 9.58333 6.11538 9.58333C6.72742 9.58333 7.31439 9.82917 7.74717 10.2668C8.17995 10.7043 8.42308 11.2978 8.42308 11.9167ZM9.57692 6.08333H1.5M9.57692 6.08333C9.57692 6.70217 9.82005 7.29566 10.2528 7.73325C10.6856 8.17083 11.2726 8.41667 11.8846 8.41667C12.4967 8.41667 13.0836 8.17083 13.5164 7.73325C13.9492 7.29566 14.1923 6.70217 14.1923 6.08333C14.1923 5.46449 13.9492 4.871 13.5164 4.43342C13.0836 3.99583 12.4967 3.75 11.8846 3.75C11.2726 3.75 10.6856 3.99583 10.2528 4.43342C9.82005 4.871 9.57692 5.46449 9.57692 6.08333Z" stroke="#0A0A0A" stroke-width="2"/>
</svg>
