<svg width="24" height="24" viewBox="0 0 24 24" fill="none" xmlns="http://www.w3.org/2000/svg">
<path d="M4.51992 2.21743C3.0776 2.69741 2.55538 3.2231 2.10776 4.66304C1.90882 5.28015 1.93369 5.32586 2.62998 5.32586C3.20194 5.32586 3.35114 5.21158 3.35114 4.86874C3.35114 4.59447 3.62469 4.13735 3.97283 3.84022C4.66913 3.17739 6.21092 3.06311 6.98182 3.61165C7.45431 3.9545 7.45431 3.97735 6.98182 4.25163C5.31569 5.23444 4.66913 5.98869 4.32098 7.31435C4.14691 8.02289 4.19664 8.0686 4.86807 8.0686C5.46489 8.0686 5.58923 7.97717 5.58923 7.52005C5.58923 7.20006 5.88764 6.65152 6.23579 6.26296C7.00669 5.41729 7.62838 5.32586 7.47917 6.05726C7.13103 7.58862 7.13103 8.18288 7.35484 9.3714C7.50404 10.1028 7.77759 10.9485 7.95166 11.2685C8.27494 11.8399 8.25007 11.8856 7.18076 12.3884C5.81304 13.0741 4.8432 14.2397 4.42045 15.7025C4.09717 16.8453 3.59982 17.4396 2.92839 17.4396C2.75432 17.4396 2.60511 17.691 2.60511 18.011C2.60511 18.7195 3.1522 18.7653 4.29611 18.1253C5.31569 17.5539 6.36013 17.5539 7.3797 18.1253C8.42415 18.6967 9.71726 18.6967 10.7617 18.1253C11.7813 17.5539 12.8257 17.5539 13.8453 18.1253C14.2929 18.3767 15.0638 18.5824 15.5363 18.5824C16.0088 18.5824 16.7797 18.3767 17.2273 18.1253C17.6749 17.8739 18.3712 17.6682 18.7691 17.6682C19.167 17.6682 19.8633 17.8739 20.3109 18.1253C21.4051 18.7424 22.0019 18.7195 22.0019 18.0567C22.0019 17.7139 21.7283 17.4396 21.1813 17.211C20.6093 16.9596 20.3606 16.6625 20.2363 16.0911C19.7887 14.1026 17.3765 12.6398 15.2379 13.0969C14.5665 13.2341 14.2432 13.1427 13.5469 12.6627C13.0744 12.3427 11.9554 11.9084 11.0601 11.7256C9.64266 11.4056 9.39398 11.2685 9.02097 10.5828C8.72256 10.0571 8.57335 9.25712 8.57335 8.2743C8.57335 6.08012 8.77229 5.32586 9.36912 5.32586C10.0903 5.32586 11.5575 6.7658 11.5575 7.47434C11.5575 7.97717 11.6569 8.0686 12.2786 8.0686C12.9501 8.0686 12.9998 8.02289 12.8257 7.31435C12.4776 5.94298 11.6818 5.05159 10.2146 4.36591L9.49345 4.02306L10.0903 3.65737C10.9855 3.06311 12.4527 3.15453 13.1739 3.84022C13.522 4.13735 13.7956 4.59447 13.7956 4.86874C13.7956 5.21158 13.9448 5.32586 14.5167 5.32586C15.213 5.32586 15.2379 5.30301 15.0389 4.61732C14.2929 2.21743 11.6818 1.32604 9.46859 2.69741L8.57335 3.24596L7.67812 2.69741C7.18076 2.37742 6.60881 2.12601 6.43473 2.12601C6.26066 2.12601 5.98711 2.08029 5.78817 2.01173C5.6141 1.96601 5.04214 2.05744 4.51992 2.21743ZM12.3035 13.3255C12.8257 13.5769 13.4225 13.9883 13.6215 14.2626C13.9199 14.6512 14.094 14.6969 14.4919 14.4912C14.7903 14.354 15.5363 14.2397 16.158 14.2397C17.1527 14.2397 17.4511 14.354 18.1723 15.0169C18.6448 15.4511 19.0178 15.9082 19.0178 16.0454C19.0178 16.1597 18.595 16.3882 18.0977 16.5254C17.5754 16.6625 16.9289 16.9139 16.6802 17.0968C15.9839 17.5767 15.1135 17.531 14.1188 16.9596C13.6215 16.6854 12.8506 16.4568 12.3035 16.4568C11.7564 16.4568 10.9855 16.6854 10.4882 16.9596C9.49345 17.531 8.62309 17.5767 7.92679 17.0968C7.67812 16.9139 7.03156 16.6625 6.5342 16.5254C5.44003 16.2511 5.39029 16.0454 6.16119 14.8112C7.28023 13.0055 10.14 12.297 12.3035 13.3255Z" fill="#717375"/>
<path d="M4.96765 20.0452C2.8539 20.8223 2.60522 20.9823 2.60522 21.4851C2.60522 22.148 3.20205 22.1708 4.29623 21.5537C4.74384 21.3023 5.44014 21.0966 5.83802 21.0966C6.2359 21.0966 6.9322 21.3023 7.37982 21.5537C8.42426 22.1251 9.71738 22.1251 10.7618 21.5537C11.2094 21.3023 11.9057 21.0966 12.3036 21.0966C12.7015 21.0966 13.3978 21.3023 13.8454 21.5537C14.8898 22.1251 16.183 22.1251 17.2274 21.5537C18.247 20.9823 19.2914 20.9823 20.311 21.5537C21.4052 22.1708 22.002 22.148 22.002 21.4851C21.9771 21.1194 21.6787 20.8452 20.7337 20.4337C19.2417 19.7481 18.0729 19.7481 16.9539 20.388C15.8846 21.0051 15.1883 20.9823 14.119 20.388C12.9999 19.7481 11.6073 19.7481 10.4883 20.388C9.44383 20.9823 8.74754 21.0051 7.72796 20.4337C6.63379 19.8395 5.83802 19.7252 4.96765 20.0452Z" fill="#717375"/>
</svg>
