<svg width="24" height="24" viewBox="0 0 24 24" fill="none" xmlns="http://www.w3.org/2000/svg">
<path d="M18.5517 2C19.0046 2 19.453 2.08622 19.8713 2.25374C20.2897 2.42125 20.6698 2.66678 20.99 2.97631C21.3102 3.28584 21.5642 3.6533 21.7375 4.05772C21.9108 4.46214 22 4.8956 22 5.33333C22 9.59333 20.8966 14.1267 19.2414 15.1333V22H17.8621V15.1333C16.2345 14.1467 15.1448 9.75333 15.1034 5.56V5.18667C15.1426 4.32828 15.5231 3.51764 16.1655 2.9239C16.808 2.33016 17.6629 1.99917 18.5517 2ZM12.3448 2V14.08C13.9448 14.4467 15.1034 16.08 15.1034 18C15.1034 20.18 13.6 22 11.6552 22C9.71034 22 8.2069 20.18 8.2069 18C8.2069 16.0867 9.36552 14.4467 10.9655 14.08V2H12.3448ZM2 2H2.68966C5.77241 2 7.46897 6.24667 7.51724 14.3333V15.3333H3.37931V22H2V2ZM11.6552 15.3333C10.5517 15.3333 9.58621 16.5 9.58621 18C9.58621 19.5 10.5517 20.6667 11.6552 20.6667C12.7586 20.6667 13.7241 19.5 13.7241 18C13.7241 16.5 12.7586 15.3333 11.6552 15.3333ZM3.37931 3.49333V14H6.13793L6.12414 13.36L6.10345 12.7267C5.91034 7.44 4.92414 4.41333 3.53103 3.57333L3.44828 3.53333L3.37931 3.49333ZM16.4828 5.21333V5.54C16.5172 8.42 17.1931 11.6267 17.8621 13.1333V3.44667C17.4778 3.5772 17.1419 3.81447 16.8966 4.12875C16.6512 4.44302 16.5072 4.82031 16.4828 5.21333ZM19.2414 3.44667V13.1333C19.9241 11.5933 20.6207 8.26667 20.6207 5.33333C20.6209 4.91957 20.4884 4.51592 20.2413 4.17801C19.9943 3.84011 19.6449 3.58459 19.2414 3.44667Z" fill="#0A0A0A"/>
</svg>
