<svg width="16" height="16" viewBox="0 0 16 16" fill="none" xmlns="http://www.w3.org/2000/svg">
<path d="M7.99984 3.91667L7.99984 3.9225M7.99984 8L7.99984 8.00584M7.99984 12.0833L7.99984 12.0892M7.99984 4.5C7.63165 4.5 7.33317 4.23884 7.33317 3.91667C7.33317 3.5945 7.63165 3.33334 7.99984 3.33334C8.36803 3.33334 8.6665 3.5945 8.6665 3.91667C8.6665 4.23884 8.36803 4.5 7.99984 4.5ZM7.99984 8.58334C7.63165 8.58334 7.33317 8.32217 7.33317 8C7.33317 7.67784 7.63165 7.41667 7.99984 7.41667C8.36803 7.41667 8.6665 7.67784 8.6665 8C8.6665 8.32217 8.36803 8.58334 7.99984 8.58334ZM7.99984 12.6667C7.63165 12.6667 7.33317 12.4055 7.33317 12.0833C7.33317 11.7612 7.63165 11.5 7.99984 11.5C8.36803 11.5 8.6665 11.7612 8.6665 12.0833C8.6665 12.4055 8.36803 12.6667 7.99984 12.6667Z" stroke="#0A0A0A" stroke-width="1.5" stroke-linecap="round" stroke-linejoin="round"/>
</svg>
