<svg width="25" height="24" viewBox="0 0 25 24" fill="none" xmlns="http://www.w3.org/2000/svg">
<path d="M10.0833 2.03738C9.25 2.19073 7.88889 3.4686 7.72222 4.28644C7.58333 4.84871 7.66667 4.92538 8.30556 4.92538C8.86111 4.92538 9.11111 4.74648 9.36111 4.15866C9.61111 3.51972 9.83333 3.39193 10.5556 3.39193C12.0833 3.39193 12.5 3.77529 12.5 5.18096V6.45883H7.5H2.5V7.22556V7.99228H7.5H12.5278L12.4444 9.96021C12.3611 11.7237 12.3056 11.9537 11.8056 12.0559C11.5 12.107 10.9167 12.3626 10.5 12.6182C9.55556 13.2316 9.02778 13.2316 7.86111 12.5671C6.61111 11.8515 5.02778 11.8515 3.94444 12.5671C3.47222 12.8482 2.97222 13.1038 2.80556 13.1038C2.63889 13.1038 2.5 13.4105 2.5 13.7683C2.5 14.3817 2.58333 14.4072 3.25 14.2539C3.69444 14.1772 4.22222 13.9216 4.47222 13.7172C5.08333 13.2316 6.63889 13.2571 7.30556 13.7938C7.66667 14.1005 8.27778 14.2539 9.16667 14.2539C10.0556 14.2539 10.6667 14.1005 11.0278 13.7938C11.7222 13.2316 13.2778 13.2316 13.9722 13.8194C14.3333 14.1005 14.9444 14.2539 15.8333 14.2539C16.7222 14.2539 17.3333 14.1005 17.6944 13.8194C18.3611 13.2571 19.9167 13.2316 20.5278 13.7172C20.7778 13.9216 21.3056 14.1772 21.75 14.2539C22.4167 14.4072 22.5 14.3561 22.5 13.8194C22.5 13.3594 22.2222 13.0782 21.3333 12.6693C20.6667 12.3626 19.9167 12.0559 19.6667 11.9793C19.25 11.8515 19.1667 11.5192 19.1667 9.9091V7.99228H20.8333H22.5V7.22556C22.5 6.45883 22.5 6.45883 20.8611 6.45883H19.25L19.0833 5.18096C19 4.4909 18.7222 3.64751 18.4722 3.31526C17.5556 2.03738 15.4722 1.65402 14.0556 2.49742C13.4167 2.88078 13.25 2.90634 12.7222 2.57409C11.9444 2.11406 10.9167 1.9096 10.0833 2.03738ZM16.9722 3.64751C17.3889 3.85197 17.5 4.20977 17.5 5.18096V6.45883H15.8333H14.1667V5.41097C14.1667 3.9542 14.5556 3.39193 15.5833 3.39193C16.0556 3.39193 16.6667 3.51972 16.9722 3.64751ZM17.5 10.1902C17.5 12.0048 17.4167 12.4648 17.0278 12.746C16.3611 13.206 15.5278 13.1805 14.7778 12.6949C14.2222 12.3371 14.1667 12.0815 14.1667 10.1391V7.99228H15.8333H17.5V10.1902Z" fill="#717375"/>
<path d="M5.13889 15.864C4.83333 15.9151 4.25 16.1962 3.83333 16.4518C3.44444 16.7329 2.97222 16.9374 2.80556 16.9374C2.63889 16.9374 2.5 17.2441 2.5 17.6019C2.5 18.2153 2.58333 18.2408 3.27778 18.0875C3.69444 18.0108 4.22222 17.7552 4.47222 17.5508C5.08333 17.0652 6.63889 17.0907 7.30556 17.6275C7.66667 17.9341 8.27778 18.0875 9.16667 18.0875C10.0556 18.0875 10.6667 17.9341 11.0278 17.6275C11.3333 17.3974 12 17.193 12.5 17.193C13 17.193 13.6667 17.3974 13.9722 17.6275C14.6944 18.2408 16.9722 18.2408 17.6944 17.6275C18.3611 17.0907 19.9167 17.0652 20.5278 17.5508C20.7778 17.7552 21.3056 18.0108 21.75 18.0875C22.4167 18.2408 22.5 18.1897 22.5 17.6786C22.5 17.2185 22.1667 16.9118 21.3333 16.4518C19.8889 15.6851 18.3889 15.6595 17.2778 16.4007C16.8056 16.6818 16.2222 16.9374 15.9722 16.9374C15.6944 16.9374 15.0556 16.6818 14.5278 16.4007C13.9722 16.094 13.1111 15.8384 12.5 15.8384C11.8611 15.8384 11.1111 16.0684 10.6111 16.4007C9.58333 17.0652 9.05556 17.0652 7.94444 16.4518C6.94444 15.8895 5.91667 15.6851 5.13889 15.864Z" fill="#717375"/>
<path d="M5.13889 19.6976C4.83333 19.7487 4.25 20.0299 3.83333 20.2854C3.44444 20.5666 2.97222 20.771 2.80556 20.771C2.63889 20.771 2.5 21.0777 2.5 21.4355C2.5 22.0489 2.58333 22.0745 3.27778 21.9211C3.69444 21.8445 4.22222 21.5889 4.47222 21.3844C5.08333 20.8988 6.63889 20.9244 7.30556 21.4611C7.66667 21.7678 8.27778 21.9211 9.16667 21.9211C10.0556 21.9211 10.6667 21.7678 11.0278 21.4611C11.7222 20.8988 13.2778 20.8988 13.9722 21.4611C14.6944 22.0745 16.9722 22.0745 17.6944 21.4866C18.3611 20.9244 19.9167 20.8988 20.5278 21.3844C20.7778 21.5889 21.3056 21.8445 21.75 21.9211C22.4167 22.0745 22.5 22.0234 22.5 21.5122C22.5 21.0522 22.1667 20.7455 21.3333 20.2854C19.8889 19.5187 18.3889 19.4932 17.2778 20.2343C16.8056 20.5155 16.2222 20.771 15.9722 20.771C15.6944 20.771 15.0556 20.5155 14.5278 20.2343C13.9722 19.9276 13.1111 19.6721 12.5 19.6721C11.8611 19.6721 11.1111 19.9021 10.6111 20.2343C9.58333 20.8988 9.05556 20.8988 7.94444 20.2854C6.94444 19.7232 5.91667 19.5187 5.13889 19.6976Z" fill="#717375"/>
</svg>
