<svg width="25" height="24" viewBox="0 0 25 24" fill="none" xmlns="http://www.w3.org/2000/svg">
<path opacity="0.915" fill-rule="evenodd" clip-rule="evenodd" d="M11.0393 4.07958C15.3716 3.57213 17.9559 5.49155 18.7921 9.83784C19.9906 10.7592 21.1891 11.6805 22.3876 12.6018C22.5375 12.9089 22.5375 13.216 22.3876 13.5231C21.3817 14.249 20.4453 15.0552 19.5786 15.9416C19.8121 16.7747 20.1117 17.5809 20.4775 18.3601C20.9815 18.5845 21.5058 18.6613 22.0506 18.5904C22.0506 19.0511 22.0506 19.5117 22.0506 19.9724C21.1486 20.0105 20.2497 19.9721 19.3539 19.8572C18.9045 18.7823 18.4551 17.7075 18.0056 16.6326C16.4344 16.5175 14.8613 16.4791 13.2865 16.5174C13.2865 17.6691 13.2865 18.8207 13.2865 19.9724C12.8371 19.9724 12.3876 19.9724 11.9382 19.9724C11.9382 18.8207 11.9382 17.6691 11.9382 16.5174C10.5071 16.4415 9.08393 16.5183 7.66854 16.7478C7.24991 17.7278 6.87537 18.7259 6.54494 19.7421C5.65834 19.9703 4.75946 20.0471 3.84831 19.9724C3.84831 19.5117 3.84831 19.0511 3.84831 18.5904C4.37265 18.5904 4.89701 18.5904 5.42135 18.5904C5.53207 17.8275 5.75679 17.0981 6.0955 16.4023C4.90434 15.3292 3.70584 14.2543 2.5 13.1776C3.67175 11.9599 4.94517 10.8466 6.32022 9.83784C6.85962 6.98513 8.43265 5.06572 11.0393 4.07958ZM12.3876 5.46156C14.9377 5.69636 16.5107 7.07835 17.1067 9.60751C14.1105 9.60751 11.1142 9.60751 8.11798 9.60751C8.67609 7.26913 10.0993 5.88715 12.3876 5.46156ZM7.44382 10.9895C10.8903 10.9511 14.336 10.9895 17.7809 11.1047C18.686 11.6458 19.51 12.2984 20.2528 13.0625C19.5424 13.7515 18.7933 14.4041 18.0056 15.0203C14.4101 15.1738 10.8146 15.1738 7.2191 15.0203C6.43139 14.4041 5.68234 13.7515 4.97191 13.0625C5.77038 12.3121 6.59436 11.6211 7.44382 10.9895Z" fill="#0A0A0A"/>
<path opacity="0.867" fill-rule="evenodd" clip-rule="evenodd" d="M8.11786 12.3715C9.16471 12.2597 9.46435 12.682 9.01674 13.6383C7.94442 13.825 7.64478 13.4027 8.11786 12.3715Z" fill="#0A0A0A"/>
<path opacity="0.867" fill-rule="evenodd" clip-rule="evenodd" d="M12.1628 12.3715C13.2096 12.2597 13.5093 12.682 13.0617 13.6383C11.9893 13.825 11.6897 13.4027 12.1628 12.3715Z" fill="#0A0A0A"/>
<path opacity="0.867" fill-rule="evenodd" clip-rule="evenodd" d="M16.2077 12.3715C17.2546 12.2597 17.5542 12.682 17.1066 13.6383C16.0343 13.825 15.7346 13.4027 16.2077 12.3715Z" fill="#0A0A0A"/>
</svg>
