<svg width="24" height="24" viewBox="0 0 24 24" fill="none" xmlns="http://www.w3.org/2000/svg">
<path d="M20.5714 2C20.9503 2 21.3137 2.15051 21.5816 2.41842C21.8495 2.68633 22 3.04969 22 3.42857V20.5714C22 20.9503 21.8495 21.3137 21.5816 21.5816C21.3137 21.8495 20.9503 22 20.5714 22H3.42857C3.04969 22 2.68633 21.8495 2.41842 21.5816C2.15051 21.3137 2 20.9503 2 20.5714V3.42857C2 3.04969 2.15051 2.68633 2.41842 2.41842C2.68633 2.15051 3.04969 2 3.42857 2H20.5714ZM20.5714 3.42857H3.42857V14.5H3.56429C3.82857 14.4714 4.07857 14.3786 4.27857 14.2286L4.37857 14.15C4.90321 13.682 5.58266 13.4249 6.28571 13.4286C6.99286 13.4286 7.67857 13.6786 8.19286 14.1429C8.44286 14.3786 8.78571 14.5 9.14286 14.5C9.5 14.5 9.84286 14.3786 10.0929 14.1429C10.6182 13.6768 11.2978 13.4223 12 13.4286C12.7071 13.4286 13.3929 13.6786 13.9071 14.1429C14.1571 14.3786 14.5 14.5 14.8571 14.5C15.2143 14.5 15.5571 14.3786 15.8071 14.1429C16.3328 13.6774 17.0122 13.423 17.7143 13.4286C18.4214 13.4286 19.1 13.6786 19.6214 14.1429C19.8714 14.3786 20.2143 14.5 20.5714 14.5V15.9286H20.4071C19.7617 15.8966 19.1466 15.6445 18.6643 15.2143C18.4027 14.9818 18.0642 14.8546 17.7143 14.8571C17.3571 14.8571 17.0143 14.9786 16.7643 15.2143C16.2386 15.6797 15.5593 15.9342 14.8571 15.9286C14.155 15.9342 13.4757 15.6797 12.95 15.2143C12.6884 14.9818 12.3499 14.8546 12 14.8571C11.6429 14.8571 11.3 14.9786 11.05 15.2143C10.5243 15.6797 9.84497 15.9342 9.14286 15.9286C8.44075 15.9342 7.76141 15.6797 7.23571 15.2143C6.97414 14.9818 6.63566 14.8546 6.28571 14.8571C5.92857 14.8571 5.58571 14.9786 5.33571 15.2143C4.81002 15.6797 4.13068 15.9342 3.42857 15.9286V18.0714H3.56429C3.82857 18.0429 4.07857 17.95 4.27857 17.8L4.37857 17.7214C4.90321 17.2534 5.58266 16.9964 6.28571 17C6.99286 17 7.67857 17.25 8.19286 17.7143C8.44286 17.95 8.78571 18.0714 9.14286 18.0714C9.5 18.0714 9.84286 17.95 10.0929 17.7143C10.6182 17.2483 11.2978 16.9937 12 17C12.7071 17 13.3929 17.25 13.9071 17.7143C14.1571 17.95 14.5 18.0714 14.8571 18.0714C15.2143 18.0714 15.5571 17.95 15.8071 17.7143C16.3328 17.2488 17.0122 16.9944 17.7143 17C18.4214 17 19.1 17.25 19.6214 17.7143C19.8714 17.95 20.2143 18.0714 20.5714 18.0714V19.5H20.4071C19.7617 19.468 19.1466 19.2159 18.6643 18.7857C18.4027 18.5532 18.0642 18.426 17.7143 18.4286C17.3571 18.4286 17.0143 18.55 16.7643 18.7857C16.2386 19.2512 15.5593 19.5056 14.8571 19.5C14.155 19.5056 13.4757 19.2512 12.95 18.7857C12.6884 18.5532 12.3499 18.426 12 18.4286C11.6429 18.4286 11.3 18.55 11.05 18.7857C10.5243 19.2512 9.84497 19.5056 9.14286 19.5C8.44075 19.5056 7.76141 19.2512 7.23571 18.7857C6.97414 18.5532 6.63566 18.426 6.28571 18.4286C5.92857 18.4286 5.58571 18.55 5.33571 18.7857C4.81002 19.2512 4.13068 19.5056 3.42857 19.5V20.5714H20.5714V3.42857ZM16.2857 5.57143C16.854 5.57143 17.3991 5.79719 17.8009 6.19906C18.2028 6.60092 18.4286 7.14596 18.4286 7.71429C18.4286 8.28261 18.2028 8.82765 17.8009 9.22952C17.3991 9.63138 16.854 9.85714 16.2857 9.85714C15.7174 9.85714 15.1723 9.63138 14.7705 9.22952C14.3686 8.82765 14.1429 8.28261 14.1429 7.71429C14.1429 7.14596 14.3686 6.60092 14.7705 6.19906C15.1723 5.79719 15.7174 5.57143 16.2857 5.57143ZM16.2857 7C16.0963 7 15.9146 7.07525 15.7806 7.20921C15.6467 7.34316 15.5714 7.52485 15.5714 7.71429C15.5714 7.90373 15.6467 8.08541 15.7806 8.21936C15.9146 8.35332 16.0963 8.42857 16.2857 8.42857C16.4752 8.42857 16.6568 8.35332 16.7908 8.21936C16.9247 8.08541 17 7.90373 17 7.71429C17 7.52485 16.9247 7.34316 16.7908 7.20921C16.6568 7.07525 16.4752 7 16.2857 7Z" fill="#0A0A0A"/>
</svg>
